<svg width="217" height="83" viewBox="0 0 217 83" fill="none" xmlns="http://www.w3.org/2000/svg">
<g clip-path="url(#clip0_6554_11187)">
<path d="M43.5089 53.3462C40.0728 54.5119 37.8713 57.8556 38.151 61.4502C38.8888 70.9177 40.8612 81.2588 45.2076 83H23.8444C23.8444 83 29.2439 80.9253 30.5232 66.0659C30.9188 61.4738 28.3336 57.1208 24.0407 55.3589C20.5035 53.9069 16.0023 53.3196 10.5225 54.9516C10.5225 54.9516 19.6259 48.1432 31.0646 55.4888C31.0735 54.8041 31.0586 54.1105 31.0795 53.3964C31.9422 23.3795 9.21049 15.2578 9.21049 15.2578C9.21049 15.2578 30.8117 16.639 34.7595 43.1025C34.7595 43.1025 37.7791 30.6749 50.8452 27.1836C50.8452 27.1836 37.8921 32.8795 37.7791 51.3777C37.7791 51.785 37.7791 52.21 37.7791 52.6438C41.2063 50.333 47.2157 47.9956 54.6769 52.2395C54.6769 52.2395 48.9858 51.4869 43.5089 53.3462Z" fill="#6C7070"/>
<path d="M24.5167 0C24.5167 0 18.9119 11.9052 25.6115 18.2356C28.8869 21.3314 33.4505 19.6462 34.0396 15.1574C34.5661 11.1467 33.0668 5.61912 24.5167 0Z" fill="#6E953E"/>
<path d="M48.9084 10.7336C48.9084 10.7336 36.012 13.735 35.1463 22.8719C34.7238 27.3401 38.8798 29.8545 42.8008 27.5349C46.3024 25.4631 49.7504 20.871 48.9084 10.7336Z" fill="#22A783"/>
<path d="M63.6197 28.8068C63.6197 28.8068 52.0054 26.4075 47.8196 33.5022C45.7728 36.9699 48.1915 40.5704 52.2583 40.1572C55.8907 39.7883 60.4394 37.3535 63.6197 28.8068Z" fill="#3688C8"/>
<path d="M68.7128 45.3041C68.7128 45.3041 60.4721 38.7288 54.2515 42.6805C51.2111 44.6106 51.6573 48.4413 55.0547 49.7486C58.0892 50.9144 62.6974 50.814 68.7128 45.3041Z" fill="#673771"/>
<path d="M0 50.9144C0 50.9144 8.7226 54.8513 13.2922 49.9966C15.5264 47.6238 14.265 44.3597 10.9866 43.9702C8.05918 43.6219 4.03703 44.7375 0 50.9144Z" fill="#971B72"/>
<path d="M11.1353 37.5719C11.1353 37.5719 16.1719 46.3725 23.1661 45.0208C26.5843 44.3597 27.5541 40.7681 24.9748 38.3983C22.6722 36.2823 18.5013 34.7535 11.1353 37.5719Z" fill="#E5703C"/>
<path d="M1.8058 22.0367C1.8058 22.0367 6.14925 33.4609 14.741 33.151C18.9416 32.9976 20.7772 28.8954 18.1473 25.593C15.8 22.6417 11.1204 20.0447 1.8058 22.0397" fill="#FBB040"/>
<path d="M83.8197 47.5854C83.8197 50.7609 83.1652 52.9802 81.9365 54.3703C80.7971 55.6777 78.911 56.5896 76.4566 56.5896C74.3533 56.5896 72.3363 56.1528 71.9406 55.9374L72.2054 50.7639C72.7766 50.9793 73.6066 51.1534 74.5705 51.1534C76.2811 51.1534 76.7631 49.849 76.7631 47.674V18.1884H83.8197V47.5854Z" fill="#6C7070"/>
<path d="M109.333 48.1934H89.3442V18.1884H108.94V23.7957H96.4038V29.9283H108.238V35.5386H96.4038V42.4975H109.333V48.1934Z" fill="#6C7070"/>
<path d="M132.612 23.7957H120.778V31.1471H131.913V36.7574H120.778V48.1963H113.718V18.1884H132.612V23.7957Z" fill="#6C7070"/>
<path d="M155.496 23.7957H143.661V31.1471H154.796V36.7574H143.661V48.1963H136.602V18.1884H155.496V23.7957Z" fill="#6C7070"/>
<path d="M184.076 44.6253C182.544 46.1924 179.343 48.7157 173.164 48.7157C164.263 48.7157 157.295 42.89 157.295 33.2336C157.295 23.5773 164.355 17.7516 173.164 17.7516C179.388 17.7516 182.764 20.3162 183.552 21.1455L181.36 26.9712C180.792 26.2334 177.546 23.8429 173.557 23.8429C168.428 23.8429 164.483 27.2368 164.483 33.1038C164.483 38.9708 168.603 42.3234 173.557 42.3234C177.326 42.3234 180.045 40.8478 181.711 39.1508L184.079 44.6253H184.076Z" fill="#6C7070"/>
<path d="M200.959 48.7157C191.972 48.7157 184.915 42.9313 184.915 33.2336C184.915 23.5359 191.972 17.7102 200.959 17.7102C209.946 17.7102 217.003 23.5359 217.003 33.2336C217.003 42.9313 209.946 48.7157 200.959 48.7157ZM200.959 23.7101C195.916 23.7101 192.102 27.3194 192.102 33.0595C192.102 38.7996 195.916 42.4532 200.959 42.4532C206.002 42.4532 209.812 38.8026 209.812 33.0595C209.812 27.3164 205.999 23.7101 200.959 23.7101Z" fill="#6C7070"/>
<path d="M79.7678 68.2734C78.9288 68.9611 77.7805 69.2149 76.4864 69.2149H74.9364V73.8276H71.9823V61.3499H76.4834C77.7775 61.3499 78.9259 61.6037 79.7648 62.2913C80.6037 62.979 81.0768 63.9381 81.0768 65.275C81.0768 66.6119 80.6037 67.571 79.7648 68.2764M77.486 63.9558C77.1201 63.702 76.7006 63.6105 76.0639 63.6105H74.9156V66.9572H76.0639C76.7006 66.9572 77.1201 66.8657 77.486 66.6149C77.8311 66.361 78.0869 65.9095 78.0869 65.278C78.0869 64.6464 77.8311 64.2096 77.486 63.9588" fill="#6C7070"/>
<path d="M92.9677 68.6158C92.9677 70.3688 92.6583 71.5817 91.7628 72.5409C90.8882 73.4794 89.5197 74.0224 87.699 74.0224C85.8784 74.0224 84.5099 73.4794 83.6174 72.5409C82.7427 71.5817 82.4304 70.3717 82.4304 68.6158V61.3469H85.4024V68.6158C85.4024 69.5011 85.4767 70.1888 85.8962 70.6934C86.2978 71.1627 86.8809 71.4696 87.699 71.4696C88.5171 71.4696 89.1032 71.1627 89.5019 70.6934C89.9213 70.1888 89.9957 69.5011 89.9957 68.6158V61.3469H92.9677V68.6158Z" fill="#6C7070"/>
<path d="M103.538 73.0101C102.735 73.5886 101.604 73.8247 100.31 73.8247H95.1692V61.3469H99.4531C100.601 61.3469 101.714 61.4384 102.553 61.8722C103.392 62.3061 104.157 63.1206 104.157 64.4959C104.157 65.8711 103.264 66.9188 102.315 67.2435V67.2789C103.883 67.6596 104.921 68.7073 104.921 70.2448C104.921 71.6201 104.338 72.4317 103.535 73.0101M100.637 63.7699C100.292 63.5515 99.9619 63.5161 99.3252 63.5161H98.1055V66.3906H99.2538C99.9113 66.3906 100.292 66.3551 100.64 66.119C101.003 65.8652 101.259 65.5406 101.259 64.9268C101.259 64.3129 101.003 63.9853 100.64 63.7699M101.295 68.7604C100.857 68.4535 100.366 68.4151 99.7268 68.4151H98.1055V71.5965H99.7268C100.363 71.5965 100.857 71.5611 101.295 71.2542C101.732 70.9649 101.931 70.5488 101.931 70.0058C101.931 69.4628 101.732 69.0644 101.295 68.7574" fill="#6C7070"/>
<path d="M113.819 73.8247H106.528V61.3469H109.464V71.4017H113.819V73.8247Z" fill="#6C7070"/>
<path d="M118.1 61.3469H115.149V73.8247H118.1V61.3469Z" fill="#6C7070"/>
<path d="M130.899 72.3402C130.259 72.9924 128.929 74.0401 126.362 74.0401C122.661 74.0401 119.763 71.6172 119.763 67.6035C119.763 63.5899 122.7 61.1669 126.362 61.1669C128.95 61.1669 130.354 62.2323 130.681 62.5776L129.771 65.0005C129.536 64.6936 128.185 63.699 126.525 63.699C124.392 63.699 122.753 65.1097 122.753 67.5504C122.753 69.991 124.467 71.384 126.525 71.384C128.093 71.384 129.224 70.7702 129.917 70.0648L130.901 72.3402H130.899Z" fill="#6C7070"/>
<path d="M142.855 73.0101C141.962 73.7155 140.796 74.0401 139.446 74.0401C137.625 74.0401 136.001 73.0987 134.98 72.1602L136.438 70.0265C137.348 70.965 138.752 71.5995 139.719 71.5995C140.686 71.5995 141.397 71.1479 141.397 70.3157C141.397 69.4834 140.466 69.1411 139.919 68.9404C139.371 68.7427 138.425 68.4151 138.006 68.2351C137.696 68.0905 137.06 67.8544 136.512 67.332C135.965 66.8244 135.528 66.1013 135.528 64.9268C135.528 63.7522 136.111 62.793 136.84 62.1969C137.551 61.6007 138.699 61.2023 140.157 61.2023C141.614 61.2023 143.292 61.89 144.149 62.7399L142.891 64.7822C142.162 64.0591 141.031 63.5161 140.082 63.5161C139.133 63.5161 138.443 63.8791 138.443 64.6375C138.443 65.396 139.154 65.6852 139.719 65.9036C140.267 66.1191 141.195 66.4466 141.596 66.609C141.942 66.7359 142.781 67.0605 143.346 67.6212C143.875 68.1465 144.33 68.905 144.33 70.0265C144.33 71.2188 143.765 72.3048 142.855 73.0101Z" fill="#6C7070"/>
<path d="M156.4 72.3402C155.76 72.9924 154.431 74.0401 151.863 74.0401C148.162 74.0401 145.265 71.6172 145.265 67.6035C145.265 63.5899 148.198 61.1669 151.863 61.1669C154.451 61.1669 155.856 62.2323 156.183 62.5776L155.272 65.0005C155.037 64.6936 153.687 63.699 152.03 63.699C149.897 63.699 148.257 65.1097 148.257 67.5504C148.257 69.991 149.971 71.384 152.03 71.384C153.598 71.384 154.728 70.7702 155.421 70.0648L156.406 72.3402H156.4Z" fill="#6C7070"/>
<path d="M168.701 73.8247H165.75V68.5981H160.702V73.8247H157.748V61.3469H160.702V66.1751H165.75V61.3469H168.701V73.8247Z" fill="#6C7070"/>
<path d="M177.034 74.0401C173.298 74.0401 170.364 71.6349 170.364 67.6035C170.364 63.5722 173.301 61.1492 177.034 61.1492C180.768 61.1492 183.704 63.5722 183.704 67.6035C183.704 71.6349 180.768 74.0401 177.034 74.0401ZM177.034 63.643C174.94 63.643 173.351 65.1422 173.351 67.5297C173.351 69.9173 174.937 71.4342 177.034 71.4342C179.132 71.4342 180.717 69.9173 180.717 67.5297C180.717 65.1422 179.132 63.643 177.034 63.643Z" fill="#6C7070"/>
<path d="M191.397 74.0401C187.661 74.0401 184.725 71.6349 184.725 67.6035C184.725 63.5722 187.661 61.1492 191.397 61.1492C195.134 61.1492 198.067 63.5722 198.067 67.6035C198.067 71.6349 195.134 74.0401 191.397 74.0401ZM191.397 63.643C189.303 63.643 187.717 65.1422 187.717 67.5297C187.717 69.9173 189.303 71.4342 191.397 71.4342C193.492 71.4342 195.08 69.9173 195.08 67.5297C195.08 65.1422 193.495 63.643 191.397 63.643Z" fill="#6C7070"/>
<path d="M207.019 73.8247H199.73V61.3469H202.664V71.4017H207.019V73.8247Z" fill="#6C7070"/>
<path d="M215.37 73.0101C214.477 73.7155 213.311 74.0401 211.96 74.0401C210.14 74.0401 208.515 73.0987 207.495 72.1602L208.953 70.0265C209.863 70.965 211.267 71.5995 212.234 71.5995C213.201 71.5995 213.912 71.1479 213.912 70.3157C213.912 69.4834 212.981 69.1411 212.436 68.9404C211.889 68.7427 210.94 68.4151 210.524 68.2351C210.214 68.0905 209.577 67.8544 209.03 67.332C208.483 66.8244 208.045 66.1013 208.045 64.9268C208.045 63.7522 208.628 62.793 209.357 62.1969C210.068 61.6007 211.217 61.2023 212.674 61.2023C214.132 61.2023 215.81 61.89 216.667 62.7399L215.411 64.7822C214.683 64.0591 213.552 63.5161 212.603 63.5161C211.654 63.5161 210.964 63.8791 210.964 64.6375C210.964 65.396 211.675 65.6852 212.24 65.9036C212.787 66.1191 213.716 66.4466 214.117 66.609C214.462 66.7359 215.301 67.0605 215.867 67.6212C216.396 68.1465 216.851 68.905 216.851 70.0265C216.851 71.2188 216.286 72.3048 215.376 73.0101" fill="#6C7070"/>
</g>
<defs>
<clipPath id="clip0_6554_11187">
<rect width="217" height="83" fill="white"/>
</clipPath>
</defs>
</svg>
